<?xml version="1.0" standalone="no"?>
<!DOCTYPE svg PUBLIC "-//W3C//DTD SVG 20010904//EN"
 "http://www.w3.org/TR/2001/REC-SVG-20010904/DTD/svg10.dtd">
<svg version="1.0" xmlns="http://www.w3.org/2000/svg"
 width="630.000000pt" height="630.000000pt" viewBox="0 0 630.000000 630.000000"
 preserveAspectRatio="xMidYMid meet">

<g transform="translate(0.000000,630.000000) scale(0.100000,-0.100000)"
fill="#000000" stroke="none">
<path d="M2950 5380 c0 -5 4 -10 9 -10 6 0 13 5 16 10 3 6 -1 10 -9 10 -9 0
-16 -4 -16 -10z"/>
<path d="M2830 5321 c0 -5 7 -14 15 -21 18 -15 42 1 31 19 -8 13 -46 15 -46 2z"/>
<path d="M2970 5290 c0 -5 5 -10 10 -10 6 0 10 5 10 10 0 6 -4 10 -10 10 -5 0
-10 -4 -10 -10z"/>
<path d="M2855 5200 c-3 -5 3 -10 14 -10 12 0 21 5 21 10 0 6 -6 10 -14 10 -8
0 -18 -4 -21 -10z"/>
<path d="M3587 5173 c-5 -7 -8 -79 -7 -163 0 -46 -13 -101 -21 -89 -5 8 -9
-82 -11 -209 -3 -193 -1 -222 12 -222 8 0 20 10 25 22 13 29 45 37 45 11 0
-12 3 -14 8 -6 11 17 73 -1 97 -27 22 -24 48 -26 65 -5 12 14 15 13 34 -4 12
-11 44 -30 71 -42 28 -12 64 -33 82 -46 17 -13 43 -26 58 -29 60 -11 165 -81
265 -177 16 -16 34 -26 40 -22 5 3 10 -3 10 -14 0 -11 5 -23 11 -26 5 -4 14
-18 19 -31 18 -46 25 -24 22 65 l-4 89 59 7 c32 3 77 5 101 4 23 -2 46 1 51 7
5 5 12 32 15 59 3 28 8 74 12 103 l6 52 44 0 c52 0 58 18 20 65 -23 28 -24 28
-30 8 -4 -14 -12 -20 -22 -16 -11 4 -13 16 -8 53 4 31 2 50 -5 54 -7 5 -9 21
-5 44 5 29 4 35 -6 25 -7 -6 -19 -9 -26 -6 -8 3 -22 -9 -35 -31 -25 -42 -36
-45 -49 -11 -6 15 -20 27 -37 31 -49 10 -55 14 -49 29 22 54 23 52 -7 32 -25
-16 -32 -15 -28 7 1 5 -5 6 -14 2 -9 -3 -14 -2 -11 3 7 10 -28 44 -37 35 -3
-3 -3 -12 0 -20 6 -17 -4 -18 -45 -3 -26 9 -31 15 -26 34 8 31 -9 39 -46 20
-23 -12 -35 -13 -50 -5 -26 14 -26 30 0 37 11 3 17 10 13 16 -3 5 2 16 12 24
16 11 17 13 3 13 -9 0 -20 -4 -23 -10 -3 -5 -14 -10 -25 -10 -10 0 -21 -8 -25
-17 -6 -17 -7 -17 -19 0 -7 9 -19 17 -26 17 -8 0 -22 7 -32 16 -14 13 -21 14
-32 5 -17 -15 -36 -7 -36 15 0 8 -7 14 -15 14 -8 0 -15 -8 -15 -19 0 -10 -9
-21 -20 -24 -16 -4 -24 2 -35 30 -13 30 -18 34 -40 29 -25 -6 -115 30 -115 47
0 4 -5 5 -10 2 -6 -3 -13 0 -16 8 -3 8 -17 17 -32 21 -42 9 -51 18 -70 74 -20
57 -27 68 -35 55z m540 -329 c5 -16 -38 -37 -50 -25 -8 8 -6 11 6 11 9 0 17 7
17 16 0 16 21 15 27 -2z"/>
<path d="M3062 5144 c2 -11 11 -20 22 -22 13 -3 17 1 14 14 -2 11 -11 20 -22
22 -13 3 -17 -1 -14 -14z"/>
<path d="M2701 5141 c-18 -12 -5 -31 20 -31 14 0 19 6 17 17 -4 20 -18 26 -37
14z"/>
<path d="M2612 5107 c-12 -13 -22 -31 -22 -40 0 -9 -4 -19 -10 -22 -5 -3 -10
-15 -10 -26 0 -32 33 -22 69 23 30 35 32 42 19 52 -8 6 -17 17 -19 24 -3 9
-11 6 -27 -11z"/>
<path d="M2933 5115 c-59 -25 -37 -53 27 -34 28 9 40 18 40 31 0 22 -22 23
-67 3z"/>
<path d="M3452 5123 c-25 -3 -45 -10 -49 -19 -3 -8 -11 -14 -19 -14 -21 0 -34
-34 -34 -89 0 -27 -5 -53 -12 -57 -8 -5 -9 3 -5 31 4 25 1 48 -9 66 -13 26
-17 28 -37 17 -12 -6 -38 -14 -57 -17 l-35 -6 -3 -75 c-4 -92 17 -298 31 -307
5 -3 72 59 148 138 l138 144 1 98 c0 53 -3 96 -7 95 -5 -1 -27 -3 -51 -5z"/>
<path d="M2770 5104 c0 -8 5 -12 10 -9 6 3 10 10 10 16 0 5 -4 9 -10 9 -5 0
-10 -7 -10 -16z"/>
<path d="M4016 5053 c-11 -11 -6 -23 9 -23 8 0 15 4 15 9 0 13 -16 22 -24 14z"/>
<path d="M2451 5040 c-16 -9 -6 -30 15 -30 15 0 20 25 6 34 -4 2 -14 1 -21 -4z"/>
<path d="M2790 5040 c0 -5 5 -10 11 -10 5 0 7 5 4 10 -3 6 -8 10 -11 10 -2 0
-4 -4 -4 -10z"/>
<path d="M2850 5020 c-8 -5 -29 -10 -45 -10 -35 0 -55 -15 -55 -41 0 -31 28
-28 74 8 25 20 46 40 46 44 0 11 -1 11 -20 -1z"/>
<path d="M3133 5000 c-6 -17 -19 -30 -28 -30 -9 0 -36 -11 -60 -25 -29 -18
-45 -22 -50 -15 -4 6 -13 9 -20 6 -7 -2 -17 0 -23 6 -14 14 -102 -1 -102 -18
0 -8 9 -14 19 -14 35 0 32 -18 -5 -25 -28 -5 -39 -2 -51 12 -10 13 -16 15 -20
5 -2 -7 -11 -19 -19 -26 -8 -8 -14 -19 -14 -25 0 -6 -13 -11 -29 -11 -17 0
-33 -5 -37 -11 -3 -6 -14 -9 -23 -6 -10 2 -26 -2 -36 -9 -21 -16 -55 -19 -55
-5 0 5 7 11 15 15 24 9 18 23 -17 40 -39 20 -38 20 -38 -6 0 -32 -15 -52 -34
-45 -9 4 -16 2 -16 -3 0 -15 -26 -12 -40 5 -10 13 -10 19 3 33 10 11 14 33 12
67 -4 75 -4 75 -19 75 -24 0 -69 -71 -78 -122 -8 -42 -7 -52 8 -62 13 -10 14
-15 5 -20 -7 -5 -21 0 -32 10 -14 12 -24 15 -33 9 -57 -42 -65 -46 -83 -37
-10 5 -29 6 -43 2 -21 -5 -25 -12 -25 -41 0 -19 -11 -56 -25 -82 -26 -49 -34
-52 -112 -47 -16 1 -35 -8 -50 -22 -12 -13 -36 -27 -53 -33 -46 -16 -42 -39
17 -98 45 -45 61 -55 100 -60 25 -3 61 -13 79 -21 19 -8 51 -18 72 -21 20 -3
37 -10 37 -16 0 -13 -77 -3 -142 18 -46 14 -68 12 -68 -7 0 -5 44 -55 98 -112
53 -57 116 -125 140 -151 44 -48 75 -54 70 -13 -1 11 6 37 16 57 15 29 33 43
90 70 39 19 86 46 104 61 18 16 55 39 82 53 27 13 52 29 55 35 4 6 17 15 28
21 12 5 29 13 37 18 8 5 47 19 85 31 39 11 77 30 85 40 13 18 19 18 53 8 30
-9 40 -9 46 1 5 7 36 15 69 18 56 5 62 8 71 34 5 16 15 29 21 29 7 0 9 62 5
203 -8 282 -15 328 -42 257z m-933 -455 c-7 -9 -15 -13 -17 -11 -7 7 7 26 19
26 6 0 6 -6 -2 -15z"/>
<path d="M2611 4936 c-11 -13 -8 -21 15 -50 31 -37 54 -46 54 -21 0 8 -4 15
-9 15 -5 0 -8 15 -7 33 1 25 -3 33 -20 35 -11 2 -26 -4 -33 -12z"/>
<path d="M2712 4939 c2 -7 10 -15 17 -17 8 -3 12 1 9 9 -2 7 -10 15 -17 17 -8
3 -12 -1 -9 -9z"/>
<path d="M3355 4744 c-113 -117 -149 -161 -147 -177 1 -12 4 -30 5 -39 1 -20
12 -23 22 -8 4 6 11 8 16 4 5 -3 16 -1 24 6 9 7 48 9 119 6 140 -6 137 -11
133 185 -2 79 -8 152 -13 161 -8 15 -32 -6 -159 -138z"/>
<path d="M4335 4890 c3 -5 10 -10 16 -10 5 0 9 5 9 10 0 6 -7 10 -16 10 -8 0
-12 -4 -9 -10z"/>
<path d="M2700 4880 c0 -5 4 -10 9 -10 6 0 13 5 16 10 3 6 -1 10 -9 10 -9 0
-16 -4 -16 -10z"/>
<path d="M4480 4830 c0 -5 5 -10 10 -10 6 0 10 5 10 10 0 6 -4 10 -10 10 -5 0
-10 -4 -10 -10z"/>
<path d="M4530 4720 c0 -5 5 -10 10 -10 6 0 10 5 10 10 0 6 -4 10 -10 10 -5 0
-10 -4 -10 -10z"/>
<path d="M4870 4610 c0 -5 5 -10 10 -10 6 0 10 5 10 10 0 6 -4 10 -10 10 -5 0
-10 -4 -10 -10z"/>
<path d="M1700 4514 c0 -8 5 -12 10 -9 6 3 10 10 10 16 0 5 -4 9 -10 9 -5 0
-10 -7 -10 -16z"/>
<path d="M1819 4473 c-6 -15 -26 -42 -45 -59 -23 -22 -34 -41 -34 -60 0 -57
-10 -70 -66 -94 -38 -15 -53 -27 -50 -36 3 -8 9 -21 12 -29 4 -10 0 -15 -11
-15 -13 0 -15 -6 -11 -27 5 -22 2 -31 -14 -41 -12 -7 -26 -10 -33 -7 -7 4 3
-7 21 -23 22 -19 30 -32 22 -37 -6 -4 -17 -1 -25 5 -19 16 -35 4 -35 -25 0
-15 -7 -26 -21 -30 -18 -6 -21 -13 -16 -46 4 -33 1 -40 -20 -54 -20 -13 -23
-22 -18 -43 5 -20 1 -30 -17 -43 -22 -17 -22 -18 -4 -25 13 -5 23 -1 32 11 8
10 14 17 15 14 9 -49 7 -51 -42 -46 -37 4 -53 11 -73 33 -27 32 -25 48 6 38
14 -4 18 -2 14 5 -4 6 -3 11 3 11 5 0 13 -4 16 -10 13 -21 23 -8 29 39 4 27
12 51 18 53 6 2 9 12 5 21 -10 26 -36 9 -43 -29 -3 -19 -12 -34 -19 -34 -7 0
-15 -6 -18 -12 -2 -7 -7 -10 -11 -7 -3 3 3 15 15 27 11 12 17 27 13 33 -4 6 0
15 7 20 11 7 9 10 -8 15 -27 7 -27 8 -11 34 20 31 -4 48 -31 21 l-21 -21 -6
27 c-5 17 -3 28 4 31 25 8 11 31 -23 38 -40 7 -55 0 -37 -18 7 -7 12 -20 12
-30 0 -10 7 -30 16 -43 9 -14 14 -32 10 -40 -3 -8 0 -26 6 -40 8 -19 8 -28 -2
-40 -10 -12 -11 -18 -2 -24 7 -4 8 -12 2 -21 -6 -8 -10 -30 -10 -49 0 -30 -2
-33 -25 -27 -21 5 -25 3 -25 -16 0 -12 9 -31 19 -42 19 -21 19 -22 1 -46 -21
-27 -37 -22 -22 7 12 22 5 43 -14 43 -10 0 -13 -11 -9 -42 5 -52 21 -136 30
-160 5 -12 2 -20 -8 -24 -25 -9 -27 -30 -6 -73 10 -22 19 -44 19 -48 0 -5 12
-14 28 -21 15 -6 58 -36 95 -65 37 -29 88 -64 113 -77 41 -23 46 -24 68 -10
43 26 261 193 274 209 6 8 12 36 12 62 0 53 15 85 98 214 28 44 52 86 52 93 0
6 11 12 25 12 19 0 25 5 25 21 0 15 -5 19 -15 15 -23 -8 -18 4 10 26 14 11 37
40 52 65 29 51 91 85 136 76 40 -8 34 9 -29 88 -64 79 -63 78 -171 118 -126
47 -136 51 -130 57 2 3 37 -4 75 -16 106 -32 113 -26 52 45 -141 166 -196 225
-208 225 -7 0 -17 -12 -23 -27z m-46 -290 c-9 -16 -18 -30 -19 -32 -2 -2 -2 7
-1 20 1 23 13 39 30 39 4 0 0 -12 -10 -27z m-85 -77 c3 -12 -1 -17 -10 -14 -7
3 -15 13 -16 22 -3 12 1 17 10 14 7 -3 15 -13 16 -22z"/>
<path d="M3676 4455 c4 -8 10 -15 15 -15 5 0 9 7 9 15 0 8 -7 15 -15 15 -9 0
-12 -6 -9 -15z"/>
<path d="M4672 4382 c-7 -43 -12 -97 -12 -121 0 -42 -1 -43 -27 -36 -14 3 -66
3 -115 -1 l-88 -7 0 -53 c0 -67 13 -101 44 -115 15 -7 32 -30 45 -60 11 -27
27 -52 35 -55 9 -3 16 -12 16 -19 0 -7 11 -28 24 -47 12 -19 31 -61 41 -94 13
-39 30 -70 52 -90 32 -29 43 -67 24 -79 -9 -5 -7 -45 5 -102 2 -13 11 -23 18
-23 20 0 28 -30 14 -48 -8 -9 -14 -50 -15 -111 -1 -79 -5 -103 -22 -133 l-22
-36 63 -6 c105 -10 518 -19 518 -12 0 19 -26 54 -63 88 -60 54 -31 46 47 -12
36 -27 75 -54 85 -60 31 -16 35 5 10 50 -21 36 -22 44 -10 76 12 32 11 37 -14
70 -19 24 -28 51 -31 87 -4 46 -3 50 9 35 21 -27 26 -22 20 20 -7 45 -11 51
-23 32 -8 -13 -10 -13 -10 1 0 9 -8 27 -18 40 -11 14 -22 50 -26 84 -4 32 -13
66 -21 75 -8 9 -15 26 -15 37 0 26 -70 143 -85 143 -19 0 -25 25 -13 57 14 37
-12 103 -40 103 -16 0 -18 8 -18 58 1 44 -2 57 -14 57 -10 0 -14 -9 -13 -27 2
-33 -13 -37 -22 -7 -4 11 -19 35 -33 52 -15 18 -32 41 -38 52 -6 11 -21 21
-33 23 -19 3 -20 5 -8 15 8 7 17 34 21 60 5 44 4 48 -20 59 -23 11 -24 13 -8
18 35 13 -15 27 -111 33 l-91 5 -12 -76z"/>
<path d="M1502 4338 c3 -7 15 -15 28 -16 21 -3 22 -2 11 12 -16 19 -44 21 -39
4z"/>
<path d="M2740 4315 c0 -8 7 -15 15 -15 8 0 15 7 15 15 0 8 -7 15 -15 15 -8 0
-15 -7 -15 -15z"/>
<path d="M1387 4201 c-3 -12 -1 -21 3 -21 15 0 23 21 12 32 -6 6 -11 2 -15
-11z"/>
<path d="M1357 4153 c-4 -3 -7 -15 -7 -26 0 -13 5 -17 16 -13 9 3 20 6 25 6 6
0 5 8 -1 20 -11 21 -22 25 -33 13z"/>
<path d="M2380 4110 c0 -5 5 -10 10 -10 6 0 10 5 10 10 0 6 -4 10 -10 10 -5 0
-10 -4 -10 -10z"/>
<path d="M1230 3996 c0 -9 7 -16 16 -16 9 0 14 5 12 12 -6 18 -28 21 -28 4z"/>
<path d="M1425 4000 c3 -5 8 -10 11 -10 2 0 4 5 4 10 0 6 -5 10 -11 10 -5 0
-7 -4 -4 -10z"/>
<path d="M1280 3938 c0 -9 5 -20 11 -23 17 -11 20 0 4 21 -13 17 -14 17 -15 2z"/>
<path d="M5205 3880 c-7 -12 12 -40 27 -40 13 0 6 43 -9 47 -6 2 -14 -1 -18
-7z"/>
<path d="M1280 3840 c0 -11 7 -20 15 -20 8 0 15 9 15 20 0 11 -7 20 -15 20 -8
0 -15 -9 -15 -20z"/>
<path d="M1125 3760 c4 -6 11 -8 16 -5 14 9 11 15 -7 15 -8 0 -12 -5 -9 -10z"/>
<path d="M2056 3751 c-4 -5 -2 -12 3 -15 5 -4 12 -2 15 3 4 5 2 12 -3 15 -5 4
-12 2 -15 -3z"/>
<path d="M1097 3733 c-11 -10 -8 -63 3 -63 6 0 10 16 10 35 0 36 -2 40 -13 28z"/>
<path d="M1190 3650 c0 -11 7 -20 15 -20 8 0 15 9 15 20 0 11 -7 20 -15 20 -8
0 -15 -9 -15 -20z"/>
<path d="M1180 3470 c0 -5 5 -10 10 -10 6 0 10 5 10 10 0 6 -4 10 -10 10 -5 0
-10 -4 -10 -10z"/>
<path d="M5365 3460 c-7 -12 2 -30 16 -30 5 0 9 9 9 20 0 21 -15 27 -25 10z"/>
<path d="M1115 3370 c-8 -13 4 -32 16 -25 5 4 14 3 21 -1 6 -4 28 -8 47 -8 32
-1 36 -4 36 -26 0 -14 4 -31 8 -37 6 -9 2 -13 -12 -13 -22 0 -27 -20 -12 -48
12 -22 31 -184 23 -196 -3 -6 -7 -32 -8 -59 -2 -45 -1 -48 15 -35 10 7 45 33
77 57 55 41 80 61 177 144 l38 32 -66 45 c-206 140 -277 180 -317 180 -20 0
-40 -4 -43 -10z"/>
<path d="M1799 3314 c-13 -14 -61 -52 -105 -85 -84 -61 -105 -87 -81 -101 8
-4 41 -27 73 -51 69 -51 193 -121 201 -114 8 8 -17 78 -39 110 -17 24 -20 46
-21 147 -1 66 -2 120 -2 120 -1 0 -12 -12 -26 -26z"/>
<path d="M5456 3222 c-3 -6 -1 -14 5 -17 15 -10 25 3 12 16 -7 7 -13 7 -17 1z"/>
<path d="M1546 3115 c-3 -8 -13 -15 -21 -15 -9 0 -46 -24 -83 -53 -37 -30 -82
-64 -100 -76 -35 -25 -37 -40 -3 -21 33 17 24 0 -18 -36 -46 -40 -59 -78 -36
-104 21 -23 75 -176 75 -211 0 -14 8 -36 19 -48 10 -12 24 -43 31 -69 6 -26
17 -54 24 -62 8 -8 17 -28 20 -45 4 -16 17 -40 28 -52 17 -18 19 -25 9 -37 -9
-10 -9 -16 -1 -21 8 -5 8 -11 -1 -21 -9 -11 -8 -14 8 -14 25 0 43 -19 43 -45
0 -12 9 -30 20 -40 11 -10 17 -22 14 -27 -4 -5 -18 1 -33 15 -38 36 -66 42
-95 20 -34 -24 -32 -37 7 -60 24 -14 47 -18 90 -16 44 3 57 0 57 -11 0 -8 -6
-17 -12 -20 -7 -3 -4 -5 7 -4 11 0 28 -2 38 -7 16 -6 16 -10 4 -24 -8 -9 -15
-37 -15 -63 0 -38 4 -48 19 -53 21 -7 25 -25 7 -43 -8 -8 -5 -16 13 -31 13
-11 29 -20 35 -21 6 0 21 -11 33 -24 13 -14 36 -30 52 -37 27 -11 34 -8 100
36 84 55 159 122 159 141 0 9 -11 14 -27 14 -16 0 -34 4 -41 9 -20 13 9 21 74
21 40 0 54 -4 54 -14 0 -8 -43 -54 -96 -103 -53 -48 -117 -107 -143 -130 l-46
-43 73 0 c75 0 112 -11 112 -33 0 -7 6 -21 13 -31 11 -15 18 -16 32 -9 22 13
85 -14 154 -65 24 -17 52 -32 62 -32 10 0 24 -8 31 -17 15 -21 40 -37 86 -58
17 -9 32 -19 32 -23 0 -17 -13 -22 -27 -11 -10 9 -13 8 -13 -5 0 -18 -4 -19
-28 -7 -37 19 -93 41 -104 41 -5 0 -8 -9 -5 -20 8 -30 -13 -36 -33 -10 -17 22
-18 22 -41 6 -17 -11 -45 -16 -96 -16 -70 0 -74 -1 -83 -26 -13 -32 -32 -21
-24 13 7 24 5 25 -22 19 -16 -4 -41 -7 -56 -6 -15 0 -29 -4 -33 -10 -3 -5 3
-10 14 -10 12 0 21 -4 21 -10 0 -5 -7 -10 -16 -10 -10 0 -14 -7 -12 -22 3 -28
-16 -36 -20 -9 -4 26 -30 33 -132 37 -47 2 -92 4 -100 5 -8 1 -34 1 -58 1 -35
-2 -44 -6 -54 -27 -12 -27 -38 -34 -38 -10 0 8 -4 15 -10 15 -5 0 -10 -4 -10
-10 0 -5 -4 -10 -10 -10 -5 0 -10 6 -10 13 0 12 -34 47 -45 47 -3 0 -5 -9 -5
-20 0 -11 -12 -27 -26 -37 -21 -13 -30 -14 -45 -5 -16 10 -21 10 -26 -4 -6
-15 -7 -14 -14 4 -12 31 -64 30 -80 0 -11 -20 -13 -20 -24 -5 -15 21 -55 22
-55 2 0 -21 -17 -19 -30 5 -15 28 -50 25 -77 -7 l-23 -28 6 28 c5 21 3 26 -8
22 -8 -3 -27 -1 -41 4 -34 13 -35 -1 -2 -27 14 -11 25 -27 25 -35 0 -9 5 -19
10 -22 18 -11 12 -47 -7 -43 -12 2 -20 16 -24 41 -3 21 -10 42 -15 47 -17 16
-111 38 -125 30 -18 -12 26 -52 89 -80 44 -20 46 -22 28 -36 -26 -19 -33 -18
-39 7 -4 14 -11 20 -21 16 -8 -3 -18 -2 -21 3 -10 16 -25 12 -25 -6 0 -9 9
-18 20 -21 11 -3 20 -9 20 -13 0 -4 17 -10 38 -14 87 -13 112 -19 118 -27 8
-14 44 -11 60 5 31 31 13 60 -48 80 -10 3 -18 12 -18 21 0 17 16 20 25 5 4 -6
12 -10 18 -9 7 2 25 -4 40 -11 23 -11 28 -19 25 -44 -2 -18 2 -31 11 -34 10
-3 12 0 8 12 -4 10 -1 16 7 16 8 0 16 -8 18 -18 4 -13 21 -23 52 -31 52 -13
68 -9 59 15 -5 14 -1 15 25 9 23 -5 32 -3 32 7 1 9 5 7 14 -4 7 -10 16 -18 20
-18 12 0 6 34 -10 51 -19 21 -11 39 18 39 11 0 22 8 25 20 9 32 23 23 23 -15
0 -28 -4 -35 -20 -35 -25 0 -25 -5 2 -32 18 -18 23 -19 32 -7 10 14 55 21 54
9 -2 -20 4 -29 16 -24 8 3 24 0 36 -6 18 -10 25 -9 37 3 12 12 13 18 1 36 -11
19 -11 23 5 32 9 6 17 17 17 24 0 8 4 15 9 15 5 0 16 3 25 6 20 8 22 -31 3
-43 -20 -11 -30 -60 -14 -66 9 -4 9 -6 0 -6 -15 -1 -17 -37 -3 -46 6 -3 10 -3
10 2 0 4 9 19 19 33 19 24 20 24 40 6 26 -24 40 -13 18 12 -25 28 -22 52 7 52
17 0 29 -9 38 -27 10 -22 21 -29 51 -31 21 -2 37 1 37 7 0 6 5 11 10 11 19 0
10 -31 -12 -39 -19 -7 -16 -9 20 -18 44 -11 65 -1 35 16 -17 9 -17 10 1 17 26
10 51 -8 51 -37 0 -20 6 -24 37 -27 24 -2 38 -9 40 -19 3 -18 69 -39 172 -55
55 -9 75 -17 92 -37 22 -25 23 -25 42 -7 12 10 26 15 31 11 6 -3 11 -2 11 2 0
5 14 17 30 26 22 14 30 15 30 5 0 -7 9 -2 19 11 10 13 25 22 36 20 23 -5 32
-29 11 -29 -8 0 -18 -4 -21 -10 -4 -6 10 -10 33 -10 31 0 41 4 45 20 3 11 10
20 17 20 7 0 9 -8 5 -20 -5 -16 -2 -20 14 -20 16 0 21 6 21 25 0 21 5 25 29
25 17 0 33 -4 36 -10 3 -5 -1 -10 -9 -10 -9 0 -16 -4 -16 -10 0 -15 21 -12 39
4 23 21 50 4 32 -18 -12 -14 -10 -16 18 -16 32 0 39 8 20 27 -8 8 -8 17 1 33
10 19 17 21 43 15 76 -17 118 3 78 36 -37 31 -18 54 45 55 27 0 55 3 62 8 11
7 39 -4 140 -52 20 -9 36 -12 41 -6 11 11 19 569 9 580 -5 4 -26 7 -48 6 -24
-1 -40 3 -40 9 0 8 -13 9 -39 5 -39 -6 -71 10 -71 35 0 9 -139 78 -217 109
-18 7 -38 18 -44 26 -6 8 -20 14 -30 14 -18 0 -119 65 -161 104 -10 9 -23 16
-28 16 -6 0 -27 16 -47 35 -49 48 -78 46 -161 -11 -66 -46 -152 -122 -152
-135 0 -4 20 -10 45 -13 66 -10 55 -26 -19 -26 -95 0 -98 18 -13 88 99 80 188
173 185 189 -2 9 -28 36 -58 59 -30 23 -55 46 -55 51 0 9 -77 108 -100 128
-11 10 -38 57 -49 85 -3 8 -23 42 -43 75 -55 86 -113 215 -118 261 -16 137
-12 129 -87 186 -103 78 -221 158 -234 158 -7 0 -14 -7 -18 -15z m-33 -705 c4
-30 14 -65 23 -78 9 -13 13 -26 10 -30 -7 -6 -29 21 -47 58 -6 14 -15 33 -20
42 -11 21 -12 52 -2 62 16 15 28 -4 36 -54z m182 -1096 c14 -9 36 -14 50 -12
14 3 28 1 31 -3 3 -5 -1 -9 -8 -10 -7 0 -31 -1 -53 -2 -32 -2 -40 -6 -40 -21
0 -33 -22 -29 -29 5 -12 64 0 75 49 43z m-151 -13 c3 -5 -1 -14 -9 -21 -8 -7
-15 -10 -15 -7 0 3 -3 12 -6 21 -7 17 20 23 30 7z m46 -7 c0 -8 -4 -12 -10 -9
-5 3 -10 10 -10 16 0 5 5 9 10 9 6 0 10 -7 10 -16z m-85 -15 c10 -15 -1 -23
-20 -15 -9 3 -13 10 -10 16 8 13 22 13 30 -1z m-365 -48 c0 -24 -18 -37 -31
-24 -13 13 -1 43 17 43 8 0 14 -9 14 -19z m90 -6 c0 -8 -7 -15 -15 -15 -8 0
-15 7 -15 15 0 8 7 15 15 15 8 0 15 -7 15 -15z m687 -17 c-3 -8 -6 -5 -6 6 -1
11 2 17 5 13 3 -3 4 -12 1 -19z m-627 -12 c0 -3 -4 -8 -10 -11 -5 -3 -10 -1
-10 4 0 6 5 11 10 11 6 0 10 -2 10 -4z m1550 -12 c0 -17 -22 -14 -28 4 -2 7 3
12 12 12 9 0 16 -7 16 -16z m-890 -9 c0 -8 -4 -15 -10 -15 -5 0 -10 7 -10 15
0 8 5 15 10 15 6 0 10 -7 10 -15z m870 -85 c0 -5 -7 -10 -15 -10 -8 0 -15 5
-15 10 0 6 7 10 15 10 8 0 15 -4 15 -10z m-295 -61 c-10 -15 -25 -10 -19 6 4
8 10 12 15 9 5 -3 7 -10 4 -15z m-242 -30 c-4 -15 -8 -17 -14 -8 -8 14 -3 29
11 29 4 0 6 -9 3 -21z"/>
<path d="M4780 3109 c0 -6 23 -36 50 -67 28 -31 50 -60 50 -65 0 -17 -25 0
-45 30 -24 37 -102 86 -122 78 -11 -3 -13 -13 -9 -31 5 -17 1 -35 -9 -50 -15
-23 -14 -24 5 -24 25 0 26 -16 3 -29 -17 -9 -17 -10 0 -28 23 -27 22 -33 -10
-33 -23 0 -31 -7 -45 -43 -22 -52 -22 -66 -3 -88 15 -15 14 -17 -10 -23 -15
-4 -25 -13 -25 -25 0 -23 -38 -110 -57 -133 -9 -10 -13 -25 -9 -34 4 -11 -1
-22 -14 -31 -11 -8 -20 -20 -20 -28 0 -15 -55 -101 -71 -110 -5 -4 -9 -15 -9
-25 0 -11 -11 -27 -25 -36 -14 -9 -25 -21 -25 -26 0 -6 -18 -32 -40 -58 -22
-26 -40 -53 -40 -59 0 -16 30 -27 135 -51 171 -39 162 -35 178 -88 9 -26 18
-67 21 -92 10 -69 36 -140 52 -140 17 0 18 12 3 27 -14 14 25 38 47 29 8 -3
14 1 14 9 0 7 -9 17 -20 20 -11 3 -20 11 -20 16 0 13 34 11 47 -2 15 -15 33
-3 33 22 0 10 4 19 10 19 5 0 7 7 4 15 -5 11 1 15 21 15 18 0 29 6 32 19 3 11
13 21 24 24 12 3 19 14 19 29 0 27 41 79 48 60 5 -17 22 -15 22 3 0 8 -4 15
-10 15 -30 0 4 48 55 77 18 11 19 12 3 18 -26 10 -22 26 5 20 33 -9 62 27 63
79 1 54 19 135 33 149 9 9 16 8 31 -1 24 -15 30 -15 30 -2 0 6 -7 10 -16 10
-12 0 -14 3 -6 13 11 13 11 71 -1 83 -13 14 -7 22 13 17 14 -4 20 0 20 11 0 9
-4 16 -10 16 -19 0 -10 49 15 78 14 17 25 41 25 55 0 34 23 52 49 38 27 -15
36 2 16 33 -9 14 -15 35 -13 48 3 20 9 23 53 26 31 2 55 9 62 19 14 18 6 71
-14 95 -8 9 -13 31 -11 49 3 32 1 34 -37 41 -41 7 -397 27 -492 28 -32 0 -53
-4 -53 -11z m-80 -699 c0 -5 -7 -10 -15 -10 -8 0 -15 5 -15 10 0 6 7 10 15 10
8 0 15 -4 15 -10z"/>
<path d="M5360 2835 c0 -9 5 -15 11 -13 6 2 11 8 11 13 0 5 -5 11 -11 13 -6 2
-11 -4 -11 -13z"/>
<path d="M5330 2754 c0 -8 5 -12 10 -9 6 4 8 11 5 16 -9 14 -15 11 -15 -7z"/>
<path d="M5265 2739 c-4 -6 -5 -13 -2 -16 7 -7 27 6 27 18 0 12 -17 12 -25 -2z"/>
<path d="M5380 2740 c0 -5 5 -10 10 -10 6 0 10 5 10 10 0 6 -4 10 -10 10 -5 0
-10 -4 -10 -10z"/>
<path d="M5202 2668 c3 -7 13 -15 22 -16 12 -3 17 1 14 10 -3 7 -13 15 -22 16
-12 3 -17 -1 -14 -10z"/>
<path d="M5190 2550 c0 -5 7 -10 15 -10 8 0 15 5 15 10 0 6 -7 10 -15 10 -8 0
-15 -4 -15 -10z"/>
<path d="M1330 2460 c0 -5 7 -10 16 -10 8 0 12 5 9 10 -3 6 -10 10 -16 10 -5
0 -9 -4 -9 -10z"/>
<path d="M1401 2341 c-12 -8 -12 -12 -2 -25 15 -18 37 -21 46 -6 7 11 -11 40
-24 40 -3 0 -12 -4 -20 -9z"/>
<path d="M5193 2268 c2 -7 10 -13 17 -13 7 0 15 6 18 13 2 7 -5 12 -18 12 -13
0 -20 -5 -17 -12z"/>
<path d="M5007 2173 c-12 -11 -8 -23 8 -23 8 0 15 7 15 15 0 16 -12 20 -23 8z"/>
<path d="M5180 2165 c0 -10 7 -15 18 -13 21 4 19 22 -2 26 -10 2 -16 -3 -16
-13z"/>
<path d="M5095 2140 c-3 -5 1 -10 10 -10 9 0 13 5 10 10 -3 6 -8 10 -10 10 -2
0 -7 -4 -10 -10z"/>
<path d="M4218 2126 c-10 -7 -18 -18 -18 -24 0 -6 -13 -18 -29 -26 -16 -9 -31
-22 -34 -30 -7 -17 -131 -110 -210 -157 -33 -19 -65 -46 -73 -61 -8 -16 -23
-28 -34 -28 -19 0 -69 -19 -122 -46 -14 -8 -35 -14 -45 -14 -33 0 -35 -13 -7
-35 18 -14 24 -26 19 -35 -7 -11 -10 -10 -19 1 -20 26 -69 41 -99 30 l-27 -11
6 -92 c3 -51 2 -133 -4 -183 -5 -49 -7 -146 -3 -214 l6 -124 40 -15 c22 -8 58
-16 80 -18 71 -6 154 -29 171 -47 4 -4 12 -3 18 2 23 18 64 21 70 6 3 -8 14
-15 25 -15 11 0 21 -6 24 -12 3 -10 7 -10 19 -1 8 7 18 10 21 7 3 -3 11 -3 17
1 7 4 4 16 -10 35 -21 29 -15 46 10 29 8 -5 30 -9 48 -9 37 0 82 -25 82 -46 0
-7 -11 -16 -25 -20 -14 -3 -25 -10 -25 -14 0 -16 166 -16 186 1 7 6 18 8 25 4
6 -4 113 -7 238 -7 295 1 271 -1 265 17 -9 23 14 18 27 -6 12 -23 10 -23 129
-1 25 5 56 14 68 21 39 21 409 55 419 39 12 -21 23 -3 23 37 0 31 -5 47 -15
51 -8 4 -15 10 -15 15 0 14 21 11 39 -5 13 -12 104 -22 156 -17 21 2 -21 21
-47 21 -30 0 -98 29 -98 42 0 17 -105 8 -142 -12 -25 -13 -39 -16 -44 -9 -9
15 -116 2 -129 -15 -12 -15 -49 -36 -64 -36 -6 0 -7 8 -4 17 5 13 3 15 -13 9
-10 -5 -48 -12 -84 -16 -36 -4 -73 -10 -82 -15 -14 -5 -18 -2 -18 11 0 24 43
43 90 42 49 -1 105 16 150 46 22 14 53 26 69 26 20 0 34 7 41 19 8 16 17 19
46 14 28 -5 39 -2 46 11 8 14 18 16 45 11 21 -4 40 -2 48 5 8 6 29 14 47 16
18 2 49 6 69 9 31 4 38 2 42 -16 6 -21 31 -22 33 -1 1 7 2 17 3 22 0 6 7 10
14 10 12 0 41 37 42 53 0 4 6 11 12 15 9 6 10 22 4 62 -5 30 -6 60 -4 67 3 7
-2 13 -11 13 -11 0 -16 -9 -16 -31 0 -26 -3 -29 -20 -24 -16 5 -20 2 -20 -15
0 -22 -14 -23 -64 -4 -9 3 -16 1 -16 -5 0 -6 9 -11 20 -11 11 0 20 -4 20 -8 0
-9 -169 -6 -178 3 -3 3 -11 0 -19 -6 -10 -9 -18 -8 -31 5 -11 9 -36 16 -58 16
-21 0 -73 12 -114 26 -41 14 -97 27 -125 31 -27 3 -59 11 -70 18 -22 13 -88
10 -122 -7 -17 -8 -29 -8 -45 0 -13 6 -48 16 -78 22 -30 7 -76 19 -102 27 -68
22 -76 13 -24 -27 50 -37 55 -48 29 -56 -10 -3 -26 -10 -36 -15 -10 -6 -27 -7
-37 -4 -11 3 -29 1 -40 -5 -13 -7 -26 -8 -33 -2 -7 5 -47 8 -90 6 -59 -2 -80
1 -90 12 -7 9 -20 24 -30 36 -21 22 -15 37 7 19 17 -15 37 -6 30 12 -2 7 11
21 31 31 41 22 46 39 9 30 -20 -5 -25 -3 -22 7 2 8 26 18 51 23 30 6 47 15 47
24 0 10 7 12 24 8 19 -5 26 -1 31 14 4 11 24 30 46 43 75 42 43 66 -135 102
-94 19 -96 20 -96 47 0 12 -7 44 -15 72 -8 28 -24 84 -35 124 -21 73 -31 82
-62 58z m-38 -521 c16 -19 0 -19 -26 0 -16 12 -16 14 -3 15 9 0 22 -7 29 -15z
m105 -25 c3 -5 1 -10 -4 -10 -6 0 -11 5 -11 10 0 6 2 10 4 10 3 0 8 -4 11 -10z
m-85 -20 c0 -5 -4 -10 -10 -10 -5 0 -10 5 -10 10 0 6 5 10 10 10 6 0 10 -4 10
-10z m861 -134 c19 -7 63 -18 99 -24 154 -26 148 -24 120 -32 -14 -5 -48 -8
-77 -9 -28 -1 -55 -6 -58 -12 -5 -7 -29 -8 -71 -3 -52 5 -64 4 -62 -7 4 -20
-74 -14 -89 7 -8 12 -20 14 -42 9 -23 -5 -33 -3 -37 9 -9 23 16 48 39 42 11
-3 30 0 41 6 17 10 45 17 97 27 4 0 22 -5 40 -13z m352 -307 l2 -34 -53 -3
c-34 -2 -60 2 -69 10 -14 11 -10 14 28 18 24 3 44 10 44 15 0 17 29 44 38 35
5 -4 10 -23 10 -41z m-153 -33 c0 -11 -19 -15 -25 -6 -3 5 1 10 9 10 9 0 16
-2 16 -4z m-1307 -31 c0 -6 -7 -11 -16 -13 -12 -3 -15 1 -11 13 7 17 25 17 27
0z m235 3 c20 -20 14 -40 -10 -36 -15 2 -24 11 -26 26 -4 24 16 30 36 10z"/>
<path d="M4319 2084 c10 -27 24 -81 31 -121 14 -88 28 -102 117 -119 38 -7 87
-18 110 -25 23 -7 45 -10 49 -6 4 3 1 26 -5 49 -7 24 -17 68 -22 98 -16 87
-26 100 -94 120 -55 17 -126 35 -182 47 l-22 5 18 -48z"/>
<path d="M4780 1840 c0 -5 5 -10 10 -10 6 0 10 5 10 10 0 6 -4 10 -10 10 -5 0
-10 -4 -10 -10z"/>
<path d="M3246 1681 c-4 -6 2 -26 13 -45 11 -18 18 -36 14 -39 -3 -4 1 -7 10
-7 10 0 17 -6 17 -14 0 -21 28 -27 42 -9 7 9 31 34 52 56 42 42 38 56 -14 57
-14 0 -48 3 -76 6 -34 4 -54 3 -58 -5z"/>
<path d="M3190 1531 c0 -55 4 -102 10 -106 8 -5 90 74 98 95 4 11 -65 88 -90
101 -17 9 -18 4 -18 -90z"/>
<path d="M3422 1567 c-18 -18 -32 -42 -32 -52 0 -11 23 -44 50 -73 l50 -54 0
106 c0 95 -2 106 -18 106 -10 0 -32 -15 -50 -33z"/>
<path d="M1956 1562 c5 -4 25 -22 44 -39 24 -22 52 -36 85 -42 45 -8 48 -8 30
6 -44 31 -138 83 -153 83 -9 0 -12 -3 -6 -8z"/>
<path d="M4350 1500 c0 -5 5 -10 11 -10 5 0 7 5 4 10 -3 6 -8 10 -11 10 -2 0
-4 -4 -4 -10z"/>
<path d="M3314 1455 c-10 -8 -28 -15 -39 -15 -11 -1 -37 -22 -57 -46 l-38 -45
0 -152 c0 -84 4 -157 8 -164 13 -21 59 -1 84 37 l23 34 96 1 96 0 6 83 c3 46
1 99 -4 117 -10 34 -122 165 -143 165 -7 0 -21 -7 -32 -15z"/>
<path d="M5510 1459 c0 -5 5 -7 10 -4 6 3 10 8 10 11 0 2 -4 4 -10 4 -5 0 -10
-5 -10 -11z"/>
<path d="M1792 1371 c4 -13 18 -16 19 -4 0 4 -5 9 -11 12 -7 2 -11 -2 -8 -8z"/>
<path d="M1180 1359 c0 -5 5 -7 10 -4 6 3 10 8 10 11 0 2 -4 4 -10 4 -5 0 -10
-5 -10 -11z"/>
<path d="M1435 1350 c3 -5 10 -10 16 -10 5 0 9 5 9 10 0 6 -7 10 -16 10 -8 0
-12 -4 -9 -10z"/>
<path d="M632 1266 c7 -8 15 -12 17 -11 5 6 -10 25 -20 25 -5 0 -4 -6 3 -14z"/>
<path d="M725 1160 c3 -5 14 -10 23 -10 15 0 15 2 2 10 -20 13 -33 13 -25 0z"/>
<path d="M5765 1157 c-4 -10 -5 -21 -1 -24 10 -10 18 4 13 24 -4 17 -4 17 -12
0z"/>
<path d="M1405 1140 c-3 -5 1 -10 9 -10 9 0 16 5 16 10 0 6 -4 10 -9 10 -6 0
-13 -4 -16 -10z"/>
<path d="M1120 1112 c0 -6 18 -12 40 -14 25 -2 39 0 37 7 -4 13 -77 19 -77 7z"/>
<path d="M1301 1106 c-8 -9 -11 -19 -8 -22 9 -9 87 7 87 17 0 16 -29 22 -44
10 -11 -9 -15 -9 -18 0 -2 7 -8 6 -17 -5z"/>
<path d="M1490 1102 c-14 -2 -29 -7 -34 -12 -5 -5 -17 -3 -27 3 -32 20 -35 -3
-4 -28 30 -24 30 -24 47 -5 9 11 23 17 31 14 17 -6 34 14 21 25 -5 4 -20 5
-34 3z"/>
<path d="M1687 1095 c-4 -8 -14 -15 -23 -15 -14 0 -14 -3 -3 -16 8 -9 26 -15
48 -13 59 3 65 1 51 -16 -10 -13 -9 -15 9 -15 13 0 21 6 21 16 0 11 5 14 16
10 20 -8 84 3 84 14 0 13 -59 30 -65 19 -10 -15 -92 -5 -113 14 -17 16 -20 16
-25 2z"/>
<path d="M1225 1090 c3 -5 11 -10 16 -10 6 0 7 5 4 10 -3 6 -11 10 -16 10 -6
0 -7 -4 -4 -10z"/>
<path d="M5701 1086 c-9 -10 -9 -16 -1 -21 16 -10 31 7 21 23 -6 10 -10 10
-20 -2z"/>
<path d="M5740 1084 c0 -8 5 -12 10 -9 6 4 8 11 5 16 -9 14 -15 11 -15 -7z"/>
<path d="M1582 1040 c-11 -17 -10 -20 7 -20 16 0 31 18 31 36 0 12 -27 1 -38
-16z"/>
<path d="M2070 992 c0 -11 9 -22 20 -25 13 -3 20 0 20 9 0 7 -9 18 -20 24 -17
9 -20 8 -20 -8z"/>
<path d="M2175 970 c-8 -13 15 -13 35 0 12 8 11 10 -7 10 -12 0 -25 -4 -28
-10z"/>
<path d="M2183 922 c-24 -4 -30 -16 -13 -27 13 -8 81 5 75 15 -7 11 -36 16
-62 12z"/>
<path d="M2340 915 c0 -19 30 -26 65 -16 l30 8 -30 7 c-59 14 -65 14 -65 1z"/>
<path d="M3759 873 c-13 -15 -11 -16 16 -9 41 10 56 26 23 26 -14 0 -32 -7
-39 -17z"/>
</g>
</svg>
